<svg xmlns="http://www.w3.org/2000/svg" width="1200" height="630" viewBox="0 0 1200 630" role="img" aria-label="Document placeholder">
  <defs>
    <linearGradient id="gDoc" x1="0" y1="0" x2="1" y2="1">
      <stop offset="0%" stop-color="#1A685B"/>
      <stop offset="100%" stop-color="#1A685B"/>
    </linearGradient>
  </defs>
  <rect width="1200" height="630" fill="url(#gDoc)"/>
  <rect x="20" y="20" width="1160" height="590" rx="20" ry="20" fill="none" stroke="rgba(255,255,255,0.65)" stroke-width="4"/>
  <!-- Centered document icon with folded corner and download arrow -->
  <g aria-label="document icon">
    <!-- Page with dog-ear -->
    <path d="M500 140 h160 l40 40 v180 a12 12 0 0 1 -12 12 h-188 a12 12 0 0 1 -12 -12 v-208 a12 12 0 0 1 12 -12 z" fill="rgba(255,255,255,0.92)"/>
    <polygon points="660,140 700,180 660,180" fill="rgba(255,255,255,0.85)"/>
    <!-- Download arrow in brand green -->
    <path d="M600 180 v110 M560 260 L600 300 L640 260" stroke="#1A685B" stroke-width="16" stroke-linecap="round" stroke-linejoin="round" fill="none"/>
    <line x1="560" y1="320" x2="640" y2="320" stroke="#1A685B" stroke-width="16" stroke-linecap="round"/>
  </g>
  <g fill="#ffffff" text-anchor="middle" dominant-baseline="middle">
    <text x="600" y="450" style="font-family: Arial, Helvetica, sans-serif; font-size: 64px; font-weight: 700; letter-spacing: 2px;">DOCUMENT</text>
  </g>
</svg>
